<?xml version="1.0" encoding="utf-8"?><!-- Uploaded to: SVG Repo, www.svgrepo.com, Generator: SVG Repo Mixer Tools -->
<svg width="800px" height="800px" viewBox="0 0 64 64" xmlns="http://www.w3.org/2000/svg" xmlns:xlink="http://www.w3.org/1999/xlink" aria-hidden="true" role="img" class="iconify iconify--emojione-monotone" preserveAspectRatio="xMidYMid meet"><path d="M62 19.055v-2.009L39.652 12.56l.486-2.514l-3.191-.623L34.82 5.94l-3.925-.767l-3.027 2.478l-3.436-.67l-.47 2.428L2 5v2.008l28 5.622v8.83H19.042c-5.523 0-10 4.495-10 10.039v17.462c0 5.544 4.477 10.039 10 10.039h25.915c5.523 0 10-4.495 10-10.039V31.499c0-5.544-4.477-10.039-10-10.039H34v-8.027l28 5.622M12.12 52.977a8.01 8.01 0 0 1-.825-2.008h41.41a8.122 8.122 0 0 1-.824 2.008H12.12M44.957 23.46c4.412 0 8 3.606 8 8.039v16.462H11.042V31.499c0-4.433 3.589-8.039 8-8.039h25.915" fill="currentColor"></path><path d="M13.02 33.43v11.425h9.137c.291-8.062 2.223-15.953 3.277-19.724h-4.146c-4.567 0-8.268 3.715-8.268 8.299" fill="currentColor"></path><path d="M39.156 44.854c-.291-8.046-2.227-15.948-3.279-19.724h-7.753c-1.055 3.775-2.988 11.678-3.279 19.724h14.311" fill="currentColor"></path><path d="M50.98 44.854V33.43c0-4.584-3.701-8.299-8.268-8.299h-4.148c1.055 3.771 2.988 11.662 3.279 19.724h9.137z" fill="currentColor"></path></svg>